<svg xmlns="http://www.w3.org/2000/svg" viewBox="0 0 800 600" width="800" height="600">
  <!-- Frame with photo -->
  <g transform="translate(200, 100)">
    <!-- Frame border -->
    <rect x="0" y="0" width="400" height="400" rx="5" ry="5" fill="#1a1a1a" />
    <rect x="20" y="20" width="360" height="360" rx="2" ry="2" fill="#f5f5f5" />
    
    <!-- Photo inside frame -->
    <rect x="30" y="30" width="340" height="340" fill="#e0e0e0" />
    
    <!-- Sample photo content (simplified) -->
    <circle cx="200" cy="150" r="60" fill="#d1d1d1" />
    <rect x="140" y="220" width="120" height="120" rx="5" ry="5" fill="#c0c0c0" />
    
    <!-- Frame glass reflection -->
    <path d="M30,30 L60,60 L60,30 Z" fill="#ffffff" opacity="0.3" />
    
    <!-- Frame details/annotations -->
    <!-- Glass Front -->
    <line x1="400" y1="50" x2="500" y2="20" stroke="#333" stroke-width="1" />
    <circle cx="510" cy="20" r="20" fill="#f5f5f5" stroke="#333" stroke-width="1" />
    <text x="510" y="25" font-family="Arial" font-size="10" text-anchor="middle">Glare-Free</text>
    <text x="510" y="35" font-family="Arial" font-size="8" text-anchor="middle">Acrylic Glass</text>
    
    <!-- Acid-free matting -->
    <line x1="400" y1="200" x2="500" y2="200" stroke="#333" stroke-width="1" />
    <circle cx="510" cy="200" r="20" fill="#f5f5f5" stroke="#333" stroke-width="1" />
    <text x="510" y="195" font-family="Arial" font-size="10" text-anchor="middle">Acid-Free</text>
    <text x="510" y="205" font-family="Arial" font-size="10" text-anchor="middle">Matting</text>
    
    <!-- Solid frame -->
    <line x1="400" y1="350" x2="500" y2="350" stroke="#333" stroke-width="1" />
    <circle cx="510" cy="350" r="20" fill="#f5f5f5" stroke="#333" stroke-width="1" />
    <text x="510" y="345" font-family="Arial" font-size="10" text-anchor="middle">100% Solid</text>
    <text x="510" y="355" font-family="Arial" font-size="10" text-anchor="middle">Frames</text>
    
    <!-- Hanging hardware -->
    <line x1="200" y1="0" x2="200" y2="-20" stroke="#333" stroke-width="1" />
    <circle cx="200" cy="-30" r="20" fill="#f5f5f5" stroke="#333" stroke-width="1" />
    <text x="200" y="-35" font-family="Arial" font-size="10" text-anchor="middle">Ready to</text>
    <text x="200" y="-25" font-family="Arial" font-size="10" text-anchor="middle">Hang</text>
  </g>
</svg>